ply
format ascii 1.0
comment Created by Blender 3.3.1 - www.blender.org
element vertex 506
property float x
property float y
property float z
property float nx
property float ny
property float nz
property uchar red
property uchar green
property uchar blue
property uchar alpha
element face 1008
property list uchar uint vertex_indices
end_header
-10.000000 30.000000 -30.000000 -0.301511 -0.301511 -0.904534 0 0 255 255
-10.000000 16.666666 -30.000000 -0.707107 0.000000 -0.707107 0 0 255 255
-10.000000 30.000000 -20.000000 -0.707107 -0.707107 0.000000 0 0 255 255
-10.000000 30.000000 30.000000 -0.301511 -0.301511 0.904534 0 0 255 255
-10.000000 16.666668 20.000000 -1.000000 0.000000 0.000000 0 0 255 255
-10.000000 16.666666 30.000000 -0.707107 0.000000 0.707107 0 0 255 255
-45.000000 30.000000 -30.000000 -0.577350 -0.577350 -0.577350 0 0 255 255
-39.166664 30.000000 -30.000000 0.000000 -0.707107 -0.707107 0 0 255 255
-45.000000 30.000000 -20.000000 -0.707107 -0.707107 0.000000 0 0 255 255
-45.000000 30.000000 30.000000 -0.577350 -0.577350 0.577350 0 0 255 255
-39.166664 30.000000 20.000000 0.000000 -1.000000 0.000000 0 0 255 255
-39.166664 30.000000 30.000000 0.000000 -0.707107 0.707107 0 0 255 255
-45.000000 50.000000 -30.000000 -0.577350 0.577350 -0.577350 0 0 255 255
-45.000000 46.666664 -30.000000 -0.707107 0.000000 -0.707107 0 0 255 255
-45.000000 50.000000 -20.000000 -0.707107 0.707107 0.000000 0 0 255 255
-45.000000 50.000000 30.000000 -0.577350 0.577350 0.577350 0 0 255 255
-45.000000 46.666664 20.000000 -1.000000 0.000000 0.000000 0 0 255 255
-45.000000 46.666664 30.000000 -0.707107 0.000000 0.707107 0 0 255 255
45.000000 50.000000 -30.000000 0.577350 0.577350 -0.577350 0 0 255 255
30.000000 50.000000 -30.000000 0.000000 0.707107 -0.707107 0 0 255 255
45.000000 50.000000 -20.000000 0.707107 0.707107 0.000000 0 0 255 255
45.000000 50.000000 30.000000 0.577350 0.577350 0.577350 0 0 255 255
30.000000 50.000000 20.000000 0.000000 1.000000 0.000000 0 0 255 255
30.000000 50.000000 30.000000 0.000000 0.707107 0.707107 0 0 255 255
45.000000 30.000000 -30.000000 0.577350 -0.577350 -0.577350 0 0 255 255
45.000000 33.333336 -30.000000 0.707107 0.000000 -0.707107 0 0 255 255
45.000000 30.000000 -20.000000 0.707107 -0.707107 0.000000 0 0 255 255
45.000000 30.000000 30.000000 0.577350 -0.577350 0.577350 0 0 255 255
45.000000 33.333336 20.000000 1.000000 0.000000 0.000000 0 0 255 255
45.000000 33.333336 30.000000 0.707107 0.000000 0.707107 0 0 255 255
10.000000 30.000000 -30.000000 0.301511 -0.301511 -0.904534 0 0 255 255
15.833334 30.000000 -30.000000 0.000000 -0.707107 -0.707107 0 0 255 255
10.000000 30.000000 -20.000000 0.707107 -0.707107 0.000000 0 0 255 255
10.000000 30.000000 30.000000 0.301511 -0.301511 0.904534 0 0 255 255
15.833334 30.000000 20.000000 0.000000 -1.000000 0.000000 0 0 255 255
15.833334 30.000000 30.000000 0.000000 -0.707107 0.707107 0 0 255 255
10.000000 -50.000000 -30.000000 0.577350 -0.577350 -0.577350 0 0 255 255
10.000000 -36.666668 -30.000000 0.707107 0.000000 -0.707107 0 0 255 255
10.000000 -50.000000 -20.000000 0.707107 -0.707107 0.000000 0 0 255 255
10.000000 -50.000000 30.000000 0.577350 -0.577350 0.577350 0 0 255 255
10.000000 -36.666668 20.000000 1.000000 0.000000 0.000000 0 0 255 255
10.000000 -36.666668 30.000000 0.707107 0.000000 0.707107 0 0 255 255
-10.000000 -50.000000 -30.000000 -0.577350 -0.577350 -0.577350 0 0 255 255
-6.666667 -50.000000 -30.000000 0.000000 -0.707107 -0.707107 0 0 255 255
-10.000000 -50.000000 -20.000000 -0.707107 -0.707107 0.000000 0 0 255 255
-10.000000 -50.000000 30.000000 -0.577350 -0.577350 0.577350 0 0 255 255
-6.666667 -50.000000 20.000000 0.000000 -1.000000 0.000000 0 0 255 255
-6.666667 -50.000000 30.000000 0.000000 -0.707107 0.707107 0 0 255 255
-10.000000 -36.666668 30.000000 -0.707107 0.000000 0.707107 0 0 255 255
-6.666667 16.666666 30.000000 0.000000 0.000000 1.000000 0 0 255 255
-6.666667 30.000000 30.000000 0.000000 0.000000 1.000000 0 0 255 255
-15.833334 33.333332 30.000000 0.000000 0.000000 1.000000 0 0 255 255
-35.833332 46.666668 30.000000 0.000000 0.000000 1.000000 0 0 255 255
-30.000000 50.000000 30.000000 0.000000 0.707107 0.707107 0 0 255 255
39.166668 46.666668 30.000000 0.000000 0.000000 1.000000 0 0 255 255
45.000000 46.666668 30.000000 0.707107 0.000000 0.707107 0 0 255 255
-39.166664 46.666664 30.000000 0.000000 0.000000 1.000000 0 0 255 255
6.666667 -50.000000 -30.000000 0.000000 -0.707107 -0.707107 0 0 255 255
6.666667 16.666668 -30.000000 0.000000 0.000000 -1.000000 0 0 255 255
6.666667 30.000000 -30.000000 0.000000 0.000000 -1.000000 0 0 255 255
15.833334 33.333336 -30.000000 0.000000 0.000000 -1.000000 0 0 255 255
35.833336 46.666664 -30.000000 0.000000 0.000000 -1.000000 0 0 255 255
-39.166664 46.666664 -30.000000 0.000000 0.000000 -1.000000 0 0 255 255
45.000000 46.666668 -30.000000 0.707107 0.000000 -0.707107 0 0 255 255
39.166668 46.666668 -30.000000 0.000000 0.000000 -1.000000 0 0 255 255
21.666668 36.666668 -30.000000 0.000000 0.000000 -1.000000 0 0 255 255
21.666668 33.333336 -30.000000 0.000000 0.000000 -1.000000 0 0 255 255
27.500002 40.000000 -30.000000 0.000000 0.000000 -1.000000 0 0 255 255
27.500002 36.666668 -30.000000 0.000000 0.000000 -1.000000 0 0 255 255
33.333336 43.333336 -30.000000 0.000000 0.000000 -1.000000 0 0 255 255
33.333336 40.000000 -30.000000 0.000000 0.000000 -1.000000 0 0 255 255
39.166668 43.333336 -30.000000 0.000000 0.000000 -1.000000 0 0 255 255
21.666668 30.000000 -30.000000 0.000000 -0.707107 -0.707107 0 0 255 255
27.500002 33.333336 -30.000000 0.000000 0.000000 -1.000000 0 0 255 255
27.500002 30.000000 -30.000000 0.000000 -0.707107 -0.707107 0 0 255 255
33.333336 36.666668 -30.000000 0.000000 0.000000 -1.000000 0 0 255 255
33.333336 33.333336 -30.000000 0.000000 0.000000 -1.000000 0 0 255 255
33.333336 30.000000 -30.000000 0.000000 -0.707107 -0.707107 0 0 255 255
39.166668 40.000000 -30.000000 0.000000 0.000000 -1.000000 0 0 255 255
39.166668 36.666668 -30.000000 0.000000 0.000000 -1.000000 0 0 255 255
39.166668 33.333336 -30.000000 0.000000 0.000000 -1.000000 0 0 255 255
39.166668 30.000000 -30.000000 0.000000 -0.707107 -0.707107 0 0 255 255
45.000000 43.333336 -30.000000 0.707107 0.000000 -0.707107 0 0 255 255
45.000000 40.000000 -30.000000 0.707107 0.000000 -0.707107 0 0 255 255
45.000000 36.666668 -30.000000 0.707107 0.000000 -0.707107 0 0 255 255
-45.000000 33.333332 -30.000000 -0.707107 0.000000 -0.707107 0 0 255 255
-45.000000 36.666664 -30.000000 -0.707107 0.000000 -0.707107 0 0 255 255
-39.166664 33.333332 -30.000000 0.000000 0.000000 -1.000000 0 0 255 255
-45.000000 40.000000 -30.000000 -0.707107 0.000000 -0.707107 0 0 255 255
-39.166668 36.666668 -30.000000 0.000000 0.000000 -1.000000 0 0 255 255
-45.000000 43.333332 -30.000000 -0.707107 0.000000 -0.707107 0 0 255 255
-39.166668 40.000000 -30.000000 0.000000 0.000000 -1.000000 0 0 255 255
-39.166668 43.333332 -30.000000 0.000000 0.000000 -1.000000 0 0 255 255
-33.333332 30.000000 -30.000000 0.000000 -0.707107 -0.707107 0 0 255 255
-33.333336 33.333336 -30.000000 0.000000 0.000000 -1.000000 0 0 255 255
-27.500000 30.000000 -30.000000 0.000000 -0.707107 -0.707107 0 0 255 255
-33.333336 36.666668 -30.000000 0.000000 0.000000 -1.000000 0 0 255 255
-27.500002 33.333336 -30.000000 0.000000 0.000000 -1.000000 0 0 255 255
-21.666668 30.000000 -30.000000 0.000000 -0.707107 -0.707107 0 0 255 255
-33.333336 40.000000 -30.000000 0.000000 0.000000 -1.000000 0 0 255 255
-27.500002 36.666668 -30.000000 0.000000 0.000000 -1.000000 0 0 255 255
-21.666668 33.333336 -30.000000 0.000000 0.000000 -1.000000 0 0 255 255
-15.833334 30.000000 -30.000000 0.000000 -0.707107 -0.707107 0 0 255 255
-33.333332 43.333332 -30.000000 0.000000 0.000000 -1.000000 0 0 255 255
-27.500000 40.000000 -30.000000 0.000000 0.000000 -1.000000 0 0 255 255
-21.666668 36.666664 -30.000000 0.000000 0.000000 -1.000000 0 0 255 255
-15.833334 33.333332 -30.000000 0.000000 0.000000 -1.000000 0 0 255 255
-30.000000 50.000000 -30.000000 0.000000 0.707107 -0.707107 0 0 255 255
-15.000000 50.000000 -30.000000 0.000000 0.707107 -0.707107 0 0 255 255
-24.166666 46.666664 -30.000000 0.000000 0.000000 -1.000000 0 0 255 255
0.000000 50.000000 -30.000000 0.000000 0.707107 -0.707107 0 0 255 255
-9.166667 46.666668 -30.000000 0.000000 0.000000 -1.000000 0 0 255 255
15.000000 50.000000 -30.000000 0.000000 0.707107 -0.707107 0 0 255 255
5.833333 46.666664 -30.000000 0.000000 0.000000 -1.000000 0 0 255 255
20.833332 46.666668 -30.000000 0.000000 0.000000 -1.000000 0 0 255 255
-18.333332 43.333336 -30.000000 0.000000 0.000000 -1.000000 0 0 255 255
-3.333334 43.333332 -30.000000 0.000000 0.000000 -1.000000 0 0 255 255
-12.500001 40.000000 -30.000000 0.000000 0.000000 -1.000000 0 0 255 255
11.666666 43.333336 -30.000000 0.000000 0.000000 -1.000000 0 0 255 255
2.499999 40.000000 -30.000000 0.000000 0.000000 -1.000000 0 0 255 255
-6.666667 36.666664 -30.000000 0.000000 0.000000 -1.000000 0 0 255 255
26.666668 43.333332 -30.000000 0.000000 0.000000 -1.000000 0 0 255 255
17.500000 40.000000 -30.000000 0.000000 0.000000 -1.000000 0 0 255 255
8.333334 36.666664 -30.000000 0.000000 0.000000 -1.000000 0 0 255 255
-0.833333 33.333332 -30.000000 0.000000 0.000000 -1.000000 0 0 255 255
30.000002 43.333336 -30.000000 0.000000 0.000000 -1.000000 0 0 255 255
24.166668 40.000000 -30.000000 0.000000 0.000000 -1.000000 0 0 255 255
18.333334 36.666668 -30.000000 0.000000 0.000000 -1.000000 0 0 255 255
12.500000 33.333336 -30.000000 0.000000 0.000000 -1.000000 0 0 255 255
20.833334 40.000000 -30.000000 0.000000 0.000000 -1.000000 0 0 255 255
15.000000 36.666668 -30.000000 0.000000 0.000000 -1.000000 0 0 255 255
11.666667 36.666664 -30.000000 0.000000 0.000000 -1.000000 0 0 255 255
9.166667 33.333336 -30.000000 0.000000 0.000000 -1.000000 0 0 255 255
5.833333 33.333336 -30.000000 0.000000 0.000000 -1.000000 0 0 255 255
2.500000 33.333336 -30.000000 0.000000 0.000000 -1.000000 0 0 255 255
3.333333 30.000000 -30.000000 0.000000 0.000000 -1.000000 0 0 255 255
0.000000 30.000000 -30.000000 0.000000 0.000000 -1.000000 0 0 255 255
-3.333333 30.000000 -30.000000 0.000000 0.000000 -1.000000 0 0 255 255
-6.666667 30.000000 -30.000000 0.000000 0.000000 -1.000000 0 0 255 255
-6.666667 16.666666 -30.000000 0.000000 0.000000 -1.000000 0 0 255 255
-3.333333 16.666666 -30.000000 0.000000 0.000000 -1.000000 0 0 255 255
0.000000 16.666666 -30.000000 0.000000 0.000000 -1.000000 0 0 255 255
3.333333 16.666664 -30.000000 0.000000 0.000000 -1.000000 0 0 255 255
-10.000000 3.333333 -30.000000 -0.707107 0.000000 -0.707107 0 0 255 255
-6.666667 3.333333 -30.000000 0.000000 0.000000 -1.000000 0 0 255 255
-10.000000 -10.000000 -30.000000 -0.707107 0.000000 -0.707107 0 0 255 255
-3.333333 3.333332 -30.000000 0.000000 0.000000 -1.000000 0 0 255 255
-6.666667 -10.000001 -30.000000 0.000000 0.000000 -1.000000 0 0 255 255
-10.000000 -23.333334 -30.000000 -0.707107 0.000000 -0.707107 0 0 255 255
0.000000 3.333331 -30.000000 0.000000 0.000000 -1.000000 0 0 255 255
-3.333333 -10.000003 -30.000000 0.000000 0.000000 -1.000000 0 0 255 255
-6.666667 -23.333336 -30.000000 0.000000 0.000000 -1.000000 0 0 255 255
-10.000000 -36.666668 -30.000000 -0.707107 0.000000 -0.707107 0 0 255 255
3.333333 3.333335 -30.000000 0.000000 0.000000 -1.000000 0 0 255 255
0.000000 -9.999999 -30.000000 0.000000 0.000000 -1.000000 0 0 255 255
-3.333333 -23.333332 -30.000000 0.000000 0.000000 -1.000000 0 0 255 255
-6.666667 -36.666664 -30.000000 0.000000 0.000000 -1.000000 0 0 255 255
10.000000 16.666666 -30.000000 0.707107 0.000000 -0.707107 0 0 255 255
10.000000 3.333333 -30.000000 0.707107 0.000000 -0.707107 0 0 255 255
6.666667 3.333334 -30.000000 0.000000 0.000000 -1.000000 0 0 255 255
10.000000 -10.000000 -30.000000 0.707107 0.000000 -0.707107 0 0 255 255
6.666667 -10.000000 -30.000000 0.000000 0.000000 -1.000000 0 0 255 255
10.000000 -23.333334 -30.000000 0.707107 0.000000 -0.707107 0 0 255 255
6.666667 -23.333334 -30.000000 0.000000 0.000000 -1.000000 0 0 255 255
6.666667 -36.666668 -30.000000 0.000000 0.000000 -1.000000 0 0 255 255
3.333333 -10.000000 -30.000000 0.000000 0.000000 -1.000000 0 0 255 255
3.333333 -23.333334 -30.000000 0.000000 0.000000 -1.000000 0 0 255 255
0.000000 -23.333332 -30.000000 0.000000 0.000000 -1.000000 0 0 255 255
3.333333 -36.666668 -30.000000 0.000000 0.000000 -1.000000 0 0 255 255
0.000000 -36.666668 -30.000000 0.000000 0.000000 -1.000000 0 0 255 255
-3.333333 -36.666664 -30.000000 0.000000 0.000000 -1.000000 0 0 255 255
3.333333 -50.000000 -30.000000 0.000000 -0.707107 -0.707107 0 0 255 255
0.000000 -50.000000 -30.000000 0.000000 -0.707107 -0.707107 0 0 255 255
-3.333333 -50.000000 -30.000000 0.000000 -0.707107 -0.707107 0 0 255 255
-15.833334 30.000000 30.000000 0.000000 -0.707107 0.707107 0 0 255 255
-21.666668 36.666664 30.000000 0.000000 0.000000 1.000000 0 0 255 255
-21.666668 33.333332 30.000000 0.000000 0.000000 1.000000 0 0 255 255
-27.500000 40.000000 30.000000 0.000000 0.000000 1.000000 0 0 255 255
-27.500000 36.666668 30.000000 0.000000 0.000000 1.000000 0 0 255 255
-33.333332 43.333332 30.000000 0.000000 0.000000 1.000000 0 0 255 255
-33.333332 40.000000 30.000000 0.000000 0.000000 1.000000 0 0 255 255
-39.166664 43.333332 30.000000 0.000000 0.000000 1.000000 0 0 255 255
-21.666668 30.000000 30.000000 0.000000 -0.707107 0.707107 0 0 255 255
-27.500000 33.333336 30.000000 0.000000 0.000000 1.000000 0 0 255 255
-27.500000 30.000000 30.000000 0.000000 -0.707107 0.707107 0 0 255 255
-33.333332 36.666668 30.000000 0.000000 0.000000 1.000000 0 0 255 255
-33.333332 33.333336 30.000000 0.000000 0.000000 1.000000 0 0 255 255
-33.333332 30.000000 30.000000 0.000000 -0.707107 0.707107 0 0 255 255
-39.166664 40.000000 30.000000 0.000000 0.000000 1.000000 0 0 255 255
-39.166664 36.666668 30.000000 0.000000 0.000000 1.000000 0 0 255 255
-39.166664 33.333336 30.000000 0.000000 0.000000 1.000000 0 0 255 255
-45.000000 43.333332 30.000000 -0.707107 0.000000 0.707107 0 0 255 255
-45.000000 40.000000 30.000000 -0.707107 0.000000 0.707107 0 0 255 255
-45.000000 36.666664 30.000000 -0.707107 0.000000 0.707107 0 0 255 255
-45.000000 33.333332 30.000000 -0.707107 0.000000 0.707107 0 0 255 255
39.166668 30.000000 30.000000 0.000000 -0.707107 0.707107 0 0 255 255
45.000000 36.666668 30.000000 0.707107 0.000000 0.707107 0 0 255 255
39.166668 33.333336 30.000000 0.000000 0.000000 1.000000 0 0 255 255
45.000000 40.000000 30.000000 0.707107 0.000000 0.707107 0 0 255 255
39.166668 36.666668 30.000000 0.000000 0.000000 1.000000 0 0 255 255
45.000000 43.333336 30.000000 0.707107 0.000000 0.707107 0 0 255 255
39.166668 40.000000 30.000000 0.000000 0.000000 1.000000 0 0 255 255
39.166668 43.333336 30.000000 0.000000 0.000000 1.000000 0 0 255 255
33.333336 30.000000 30.000000 0.000000 -0.707107 0.707107 0 0 255 255
33.333336 33.333336 30.000000 0.000000 0.000000 1.000000 0 0 255 255
27.500002 30.000000 30.000000 0.000000 -0.707107 0.707107 0 0 255 255
33.333336 36.666668 30.000000 0.000000 0.000000 1.000000 0 0 255 255
27.500002 33.333336 30.000000 0.000000 0.000000 1.000000 0 0 255 255
21.666668 30.000000 30.000000 0.000000 -0.707107 0.707107 0 0 255 255
33.333336 40.000000 30.000000 0.000000 0.000000 1.000000 0 0 255 255
27.500002 36.666668 30.000000 0.000000 0.000000 1.000000 0 0 255 255
21.666668 33.333336 30.000000 0.000000 0.000000 1.000000 0 0 255 255
33.333336 43.333336 30.000000 0.000000 0.000000 1.000000 0 0 255 255
27.500002 40.000000 30.000000 0.000000 0.000000 1.000000 0 0 255 255
21.666668 36.666668 30.000000 0.000000 0.000000 1.000000 0 0 255 255
15.833334 33.333336 30.000000 0.000000 0.000000 1.000000 0 0 255 255
15.000000 50.000000 30.000000 0.000000 0.707107 0.707107 0 0 255 255
24.166668 46.666668 30.000000 0.000000 0.000000 1.000000 0 0 255 255
0.000000 50.000000 30.000000 0.000000 0.707107 0.707107 0 0 255 255
9.166668 46.666668 30.000000 0.000000 0.000000 1.000000 0 0 255 255
-15.000000 50.000000 30.000000 0.000000 0.707107 0.707107 0 0 255 255
-5.833333 46.666668 30.000000 0.000000 0.000000 1.000000 0 0 255 255
-20.833332 46.666668 30.000000 0.000000 0.000000 1.000000 0 0 255 255
18.333336 43.333336 30.000000 0.000000 0.000000 1.000000 0 0 255 255
3.333334 43.333336 30.000000 0.000000 0.000000 1.000000 0 0 255 255
12.500001 40.000000 30.000000 0.000000 0.000000 1.000000 0 0 255 255
-11.666666 43.333336 30.000000 0.000000 0.000000 1.000000 0 0 255 255
-2.499999 40.000004 30.000000 0.000000 0.000000 1.000000 0 0 255 255
6.666667 36.666672 30.000000 0.000000 0.000000 1.000000 0 0 255 255
-26.666664 43.333336 30.000000 0.000000 0.000000 1.000000 0 0 255 255
-17.499998 40.000000 30.000000 0.000000 0.000000 1.000000 0 0 255 255
-8.333332 36.666668 30.000000 0.000000 0.000000 1.000000 0 0 255 255
0.833334 33.333336 30.000000 0.000000 0.000000 1.000000 0 0 255 255
-29.999998 43.333336 30.000000 0.000000 0.000000 1.000000 0 0 255 255
-24.166666 40.000000 30.000000 0.000000 0.000000 1.000000 0 0 255 255
-18.333334 36.666664 30.000000 0.000000 0.000000 1.000000 0 0 255 255
-12.500000 33.333332 30.000000 0.000000 0.000000 1.000000 0 0 255 255
-20.833332 40.000000 30.000000 0.000000 0.000000 1.000000 0 0 255 255
-15.000000 36.666664 30.000000 0.000000 0.000000 1.000000 0 0 255 255
-11.666666 36.666664 30.000000 0.000000 0.000000 1.000000 0 0 255 255
-9.166666 33.333332 30.000000 0.000000 0.000000 1.000000 0 0 255 255
-5.833333 33.333332 30.000000 0.000000 0.000000 1.000000 0 0 255 255
-2.499999 33.333336 30.000000 0.000000 0.000000 1.000000 0 0 255 255
-3.333333 30.000000 30.000000 0.000000 0.000000 1.000000 0 0 255 255
0.000000 30.000000 30.000000 0.000000 0.000000 1.000000 0 0 255 255
3.333333 30.000000 30.000000 0.000000 0.000000 1.000000 0 0 255 255
6.666667 30.000000 30.000000 0.000000 0.000000 1.000000 0 0 255 255
10.000000 16.666666 30.000000 0.707107 0.000000 0.707107 0 0 255 255
6.666667 16.666666 30.000000 0.000000 0.000000 1.000000 0 0 255 255
3.333333 16.666666 30.000000 0.000000 0.000000 1.000000 0 0 255 255
0.000000 16.666666 30.000000 0.000000 0.000000 1.000000 0 0 255 255
-3.333333 16.666664 30.000000 0.000000 0.000000 1.000000 0 0 255 255
10.000000 3.333333 30.000000 0.707107 0.000000 0.707107 0 0 255 255
6.666667 3.333333 30.000000 0.000000 0.000000 1.000000 0 0 255 255
10.000000 -10.000000 30.000000 0.707107 0.000000 0.707107 0 0 255 255
3.333333 3.333332 30.000000 0.000000 0.000000 1.000000 0 0 255 255
6.666667 -10.000001 30.000000 0.000000 0.000000 1.000000 0 0 255 255
10.000000 -23.333334 30.000000 0.707107 0.000000 0.707107 0 0 255 255
0.000000 3.333331 30.000000 0.000000 0.000000 1.000000 0 0 255 255
3.333333 -10.000003 30.000000 0.000000 0.000000 1.000000 0 0 255 255
6.666667 -23.333336 30.000000 0.000000 0.000000 1.000000 0 0 255 255
-3.333333 3.333333 30.000000 0.000000 0.000000 1.000000 0 0 255 255
0.000000 -10.000000 30.000000 0.000000 0.000000 1.000000 0 0 255 255
3.333333 -23.333334 30.000000 0.000000 0.000000 1.000000 0 0 255 255
6.666667 -36.666668 30.000000 0.000000 0.000000 1.000000 0 0 255 255
-10.000000 3.333333 30.000000 -0.707107 0.000000 0.707107 0 0 255 255
-6.666667 3.333333 30.000000 0.000000 0.000000 1.000000 0 0 255 255
-10.000000 -10.000000 30.000000 -0.707107 0.000000 0.707107 0 0 255 255
-6.666667 -10.000000 30.000000 0.000000 0.000000 1.000000 0 0 255 255
-10.000000 -23.333334 30.000000 -0.707107 0.000000 0.707107 0 0 255 255
-6.666667 -23.333334 30.000000 0.000000 0.000000 1.000000 0 0 255 255
-6.666666 -36.666668 30.000000 0.000000 0.000000 1.000000 0 0 255 255
-3.333333 -10.000000 30.000000 0.000000 0.000000 1.000000 0 0 255 255
-3.333333 -23.333334 30.000000 0.000000 0.000000 1.000000 0 0 255 255
0.000000 -23.333334 30.000000 0.000000 0.000000 1.000000 0 0 255 255
-3.333333 -36.666668 30.000000 0.000000 0.000000 1.000000 0 0 255 255
0.000001 -36.666668 30.000000 0.000000 0.000000 1.000000 0 0 255 255
3.333334 -36.666668 30.000000 0.000000 0.000000 1.000000 0 0 255 255
-3.333333 -50.000000 30.000000 0.000000 -0.707107 0.707107 0 0 255 255
0.000000 -50.000000 30.000000 0.000000 -0.707107 0.707107 0 0 255 255
3.333333 -50.000000 30.000000 0.000000 -0.707107 0.707107 0 0 255 255
6.666667 -50.000000 30.000000 0.000000 -0.707107 0.707107 0 0 255 255
10.000000 -50.000000 20.000000 0.707107 -0.707107 0.000000 0 0 255 255
6.666667 -50.000000 20.000000 0.000000 -1.000000 0.000000 0 0 255 255
3.333333 -50.000000 20.000000 0.000000 -1.000000 0.000000 0 0 255 255
0.000000 -50.000000 20.000000 0.000000 -1.000000 0.000000 0 0 255 255
-3.333333 -50.000000 20.000000 0.000000 -1.000000 0.000000 0 0 255 255
10.000000 -50.000000 10.000000 0.707107 -0.707107 0.000000 0 0 255 255
6.666667 -50.000000 10.000000 0.000000 -1.000000 0.000000 0 0 255 255
10.000000 -50.000000 0.000000 0.707107 -0.707107 0.000000 0 0 255 255
3.333333 -50.000000 10.000000 0.000000 -1.000000 0.000000 0 0 255 255
6.666667 -50.000000 0.000000 0.000000 -1.000000 0.000000 0 0 255 255
10.000000 -50.000000 -10.000000 0.707107 -0.707107 0.000000 0 0 255 255
0.000000 -50.000000 10.000000 0.000000 -1.000000 0.000000 0 0 255 255
3.333333 -50.000000 0.000000 0.000000 -1.000000 0.000000 0 0 255 255
6.666667 -50.000000 -10.000000 0.000000 -1.000000 0.000000 0 0 255 255
-3.333333 -50.000000 10.000000 0.000000 -1.000000 0.000000 0 0 255 255
0.000000 -50.000000 0.000000 0.000000 -1.000000 0.000000 0 0 255 255
3.333333 -50.000000 -10.000000 0.000000 -1.000000 0.000000 0 0 255 255
6.666667 -50.000000 -20.000000 0.000000 -1.000000 0.000000 0 0 255 255
-10.000000 -50.000000 20.000000 -0.707107 -0.707107 0.000000 0 0 255 255
-10.000000 -50.000000 10.000000 -0.707107 -0.707107 0.000000 0 0 255 255
-6.666667 -50.000000 10.000000 0.000000 -1.000000 0.000000 0 0 255 255
-10.000000 -50.000000 0.000000 -0.707107 -0.707107 0.000000 0 0 255 255
-6.666667 -50.000000 0.000000 0.000000 -1.000000 0.000000 0 0 255 255
-10.000000 -50.000000 -10.000000 -0.707107 -0.707107 0.000000 0 0 255 255
-6.666667 -50.000000 -10.000000 0.000000 -1.000000 0.000000 0 0 255 255
-6.666666 -50.000000 -20.000000 0.000000 -1.000000 0.000000 0 0 255 255
-3.333333 -50.000000 0.000000 0.000000 -1.000000 0.000000 0 0 255 255
-3.333333 -50.000000 -10.000000 0.000000 -1.000000 0.000000 0 0 255 255
0.000000 -50.000000 -10.000000 0.000000 -1.000000 0.000000 0 0 255 255
-3.333333 -50.000000 -20.000000 0.000000 -1.000000 0.000000 0 0 255 255
0.000001 -50.000000 -20.000000 0.000000 -1.000000 0.000000 0 0 255 255
3.333334 -50.000000 -20.000000 0.000000 -1.000000 0.000000 0 0 255 255
10.000000 30.000000 20.000000 0.707107 -0.707107 0.000000 0 0 255 255
10.000000 16.666668 20.000000 1.000000 0.000000 0.000000 0 0 255 255
10.000000 3.333334 20.000000 1.000000 0.000000 0.000000 0 0 255 255
10.000000 -10.000000 20.000000 1.000000 0.000000 0.000000 0 0 255 255
10.000000 -23.333332 20.000000 1.000000 0.000000 0.000000 0 0 255 255
10.000000 30.000000 10.000000 0.707107 -0.707107 0.000000 0 0 255 255
10.000000 16.666668 10.000000 1.000000 0.000000 0.000000 0 0 255 255
10.000000 30.000000 0.000000 0.707107 -0.707107 0.000000 0 0 255 255
10.000000 3.333334 10.000000 1.000000 0.000000 0.000000 0 0 255 255
10.000000 16.666668 0.000000 1.000000 0.000000 0.000000 0 0 255 255
10.000000 30.000000 -10.000000 0.707107 -0.707107 0.000000 0 0 255 255
10.000000 -9.999999 10.000000 1.000000 0.000000 0.000000 0 0 255 255
10.000000 3.333335 0.000000 1.000000 0.000000 0.000000 0 0 255 255
10.000000 16.666668 -10.000000 1.000000 0.000000 0.000000 0 0 255 255
10.000000 -23.333334 10.000000 1.000000 0.000000 0.000000 0 0 255 255
10.000000 -10.000000 0.000000 1.000000 0.000000 0.000000 0 0 255 255
10.000000 3.333333 -10.000000 1.000000 0.000000 0.000000 0 0 255 255
10.000000 16.666666 -20.000000 1.000000 0.000000 0.000000 0 0 255 255
10.000000 -36.666668 10.000000 1.000000 0.000000 0.000000 0 0 255 255
10.000000 -36.666664 0.000000 1.000000 0.000000 0.000000 0 0 255 255
10.000000 -36.666668 -10.000000 1.000000 0.000000 0.000000 0 0 255 255
10.000000 -36.666668 -20.000000 1.000000 0.000000 0.000000 0 0 255 255
10.000000 -23.333332 0.000000 1.000000 0.000000 0.000000 0 0 255 255
10.000000 -23.333334 -10.000000 1.000000 0.000000 0.000000 0 0 255 255
10.000000 -10.000000 -10.000000 1.000000 0.000000 0.000000 0 0 255 255
10.000000 -23.333334 -20.000000 1.000000 0.000000 0.000000 0 0 255 255
10.000000 -10.000000 -20.000000 1.000000 0.000000 0.000000 0 0 255 255
10.000000 3.333333 -20.000000 1.000000 0.000000 0.000000 0 0 255 255
45.000000 30.000000 20.000000 0.707107 -0.707107 0.000000 0 0 255 255
39.166668 30.000000 20.000000 0.000000 -1.000000 0.000000 0 0 255 255
33.333336 30.000000 20.000000 0.000000 -1.000000 0.000000 0 0 255 255
27.500000 30.000000 20.000000 0.000000 -1.000000 0.000000 0 0 255 255
21.666668 30.000000 20.000000 0.000000 -1.000000 0.000000 0 0 255 255
45.000000 30.000000 10.000000 0.707107 -0.707107 0.000000 0 0 255 255
39.166668 30.000000 10.000000 0.000000 -1.000000 0.000000 0 0 255 255
45.000000 30.000000 0.000000 0.707107 -0.707107 0.000000 0 0 255 255
33.333332 30.000000 10.000000 0.000000 -1.000000 0.000000 0 0 255 255
39.166664 30.000000 0.000000 0.000000 -1.000000 0.000000 0 0 255 255
45.000000 30.000000 -10.000000 0.707107 -0.707107 0.000000 0 0 255 255
27.500000 30.000000 10.000000 0.000000 -1.000000 0.000000 0 0 255 255
33.333332 30.000000 0.000000 0.000000 -1.000000 0.000000 0 0 255 255
39.166664 30.000000 -10.000000 0.000000 -1.000000 0.000000 0 0 255 255
21.666668 30.000000 10.000000 0.000000 -1.000000 0.000000 0 0 255 255
27.500002 30.000000 0.000000 0.000000 -1.000000 0.000000 0 0 255 255
33.333336 30.000000 -10.000000 0.000000 -1.000000 0.000000 0 0 255 255
39.166668 30.000000 -20.000000 0.000000 -1.000000 0.000000 0 0 255 255
15.833334 30.000000 10.000000 0.000000 -1.000000 0.000000 0 0 255 255
15.833334 30.000000 0.000000 0.000000 -1.000000 0.000000 0 0 255 255
15.833334 30.000000 -10.000000 0.000000 -1.000000 0.000000 0 0 255 255
15.833334 30.000000 -20.000000 0.000000 -1.000000 0.000000 0 0 255 255
21.666668 30.000000 0.000000 0.000000 -1.000000 0.000000 0 0 255 255
21.666668 30.000000 -10.000000 0.000000 -1.000000 0.000000 0 0 255 255
27.500002 30.000000 -10.000000 0.000000 -1.000000 0.000000 0 0 255 255
21.666668 30.000000 -20.000000 0.000000 -1.000000 0.000000 0 0 255 255
27.500002 30.000000 -20.000000 0.000000 -1.000000 0.000000 0 0 255 255
33.333336 30.000000 -20.000000 0.000000 -1.000000 0.000000 0 0 255 255
45.000000 50.000000 20.000000 0.707107 0.707107 0.000000 0 0 255 255
45.000000 46.666668 20.000000 1.000000 0.000000 0.000000 0 0 255 255
45.000000 43.333332 20.000000 1.000000 0.000000 0.000000 0 0 255 255
45.000000 40.000000 20.000000 1.000000 0.000000 0.000000 0 0 255 255
45.000000 36.666668 20.000000 1.000000 0.000000 0.000000 0 0 255 255
45.000000 50.000000 10.000000 0.707107 0.707107 0.000000 0 0 255 255
45.000000 46.666664 10.000000 1.000000 0.000000 0.000000 0 0 255 255
45.000000 50.000000 0.000000 0.707107 0.707107 0.000000 0 0 255 255
45.000000 43.333332 10.000000 1.000000 0.000000 0.000000 0 0 255 255
45.000000 46.666664 0.000000 1.000000 0.000000 0.000000 0 0 255 255
45.000000 50.000000 -10.000000 0.707107 0.707107 0.000000 0 0 255 255
45.000000 40.000000 10.000000 1.000000 0.000000 0.000000 0 0 255 255
45.000000 43.333332 0.000000 1.000000 0.000000 0.000000 0 0 255 255
45.000000 46.666664 -10.000000 1.000000 0.000000 0.000000 0 0 255 255
45.000000 36.666668 10.000000 1.000000 0.000000 0.000000 0 0 255 255
45.000000 40.000000 0.000000 1.000000 0.000000 0.000000 0 0 255 255
45.000000 43.333336 -10.000000 1.000000 0.000000 0.000000 0 0 255 255
45.000000 46.666668 -20.000000 1.000000 0.000000 0.000000 0 0 255 255
45.000000 33.333336 10.000000 1.000000 0.000000 0.000000 0 0 255 255
45.000000 33.333332 0.000000 1.000000 0.000000 0.000000 0 0 255 255
45.000000 33.333336 -10.000000 1.000000 0.000000 0.000000 0 0 255 255
45.000000 33.333332 -20.000000 1.000000 0.000000 0.000000 0 0 255 255
45.000000 36.666664 0.000000 1.000000 0.000000 0.000000 0 0 255 255
45.000000 36.666668 -10.000000 1.000000 0.000000 0.000000 0 0 255 255
45.000000 40.000000 -10.000000 1.000000 0.000000 0.000000 0 0 255 255
45.000000 36.666664 -20.000000 1.000000 0.000000 0.000000 0 0 255 255
45.000000 40.000000 -20.000000 1.000000 0.000000 0.000000 0 0 255 255
45.000000 43.333336 -20.000000 1.000000 0.000000 0.000000 0 0 255 255
-45.000000 50.000000 20.000000 -0.707107 0.707107 0.000000 0 0 255 255
-30.000000 50.000000 20.000000 0.000000 1.000000 0.000000 0 0 255 255
-15.000000 50.000000 20.000000 0.000000 1.000000 0.000000 0 0 255 255
0.000000 50.000000 20.000000 0.000000 1.000000 0.000000 0 0 255 255
15.000000 50.000000 20.000000 0.000000 1.000000 0.000000 0 0 255 255
-45.000000 50.000000 10.000000 -0.707107 0.707107 0.000000 0 0 255 255
-30.000000 50.000000 10.000000 0.000000 1.000000 0.000000 0 0 255 255
-45.000000 50.000000 0.000000 -0.707107 0.707107 0.000000 0 0 255 255
-15.000000 50.000000 10.000000 0.000000 1.000000 0.000000 0 0 255 255
-30.000000 50.000000 0.000000 0.000000 1.000000 0.000000 0 0 255 255
-45.000000 50.000000 -10.000000 -0.707107 0.707107 0.000000 0 0 255 255
0.000000 50.000000 10.000000 0.000000 1.000000 0.000000 0 0 255 255
-15.000000 50.000000 0.000000 0.000000 1.000000 0.000000 0 0 255 255
-30.000000 50.000000 -10.000000 0.000000 1.000000 0.000000 0 0 255 255
15.000000 50.000000 10.000000 0.000000 1.000000 0.000000 0 0 255 255
0.000000 50.000000 0.000000 0.000000 1.000000 0.000000 0 0 255 255
-15.000000 50.000000 -10.000000 0.000000 1.000000 0.000000 0 0 255 255
-30.000000 50.000000 -20.000000 0.000000 1.000000 0.000000 0 0 255 255
30.000000 50.000000 10.000000 0.000000 1.000000 0.000000 0 0 255 255
30.000000 50.000000 0.000000 0.000000 1.000000 0.000000 0 0 255 255
30.000000 50.000000 -10.000000 0.000000 1.000000 0.000000 0 0 255 255
30.000000 50.000000 -20.000000 0.000000 1.000000 0.000000 0 0 255 255
15.000000 50.000000 0.000000 0.000000 1.000000 0.000000 0 0 255 255
15.000000 50.000000 -10.000000 0.000000 1.000000 0.000000 0 0 255 255
0.000000 50.000000 -10.000000 0.000000 1.000000 0.000000 0 0 255 255
15.000000 50.000000 -20.000000 0.000000 1.000000 0.000000 0 0 255 255
0.000000 50.000000 -20.000000 0.000000 1.000000 0.000000 0 0 255 255
-15.000000 50.000000 -20.000000 0.000000 1.000000 0.000000 0 0 255 255
-45.000000 30.000000 20.000000 -0.707107 -0.707107 0.000000 0 0 255 255
-45.000000 33.333332 20.000000 -1.000000 0.000000 0.000000 0 0 255 255
-45.000000 36.666668 20.000000 -1.000000 0.000000 0.000000 0 0 255 255
-45.000000 40.000000 20.000000 -1.000000 0.000000 0.000000 0 0 255 255
-45.000000 43.333332 20.000000 -1.000000 0.000000 0.000000 0 0 255 255
-45.000000 30.000000 10.000000 -0.707107 -0.707107 0.000000 0 0 255 255
-45.000000 33.333336 10.000000 -1.000000 0.000000 0.000000 0 0 255 255
-45.000000 30.000000 0.000000 -0.707107 -0.707107 0.000000 0 0 255 255
-45.000000 36.666668 10.000000 -1.000000 0.000000 0.000000 0 0 255 255
-45.000000 33.333336 0.000000 -1.000000 0.000000 0.000000 0 0 255 255
-45.000000 30.000000 -10.000000 -0.707107 -0.707107 0.000000 0 0 255 255
-45.000000 40.000000 10.000000 -1.000000 0.000000 0.000000 0 0 255 255
-45.000000 36.666668 0.000000 -1.000000 0.000000 0.000000 0 0 255 255
-45.000000 33.333336 -10.000000 -1.000000 0.000000 0.000000 0 0 255 255
-45.000000 43.333332 10.000000 -1.000000 0.000000 0.000000 0 0 255 255
-45.000000 40.000000 0.000000 -1.000000 0.000000 0.000000 0 0 255 255
-45.000000 36.666664 -10.000000 -1.000000 0.000000 0.000000 0 0 255 255
-45.000000 33.333332 -20.000000 -1.000000 0.000000 0.000000 0 0 255 255
-45.000000 46.666664 10.000000 -1.000000 0.000000 0.000000 0 0 255 255
-45.000000 46.666668 0.000000 -1.000000 0.000000 0.000000 0 0 255 255
-45.000000 46.666664 -10.000000 -1.000000 0.000000 0.000000 0 0 255 255
-45.000000 46.666668 -20.000000 -1.000000 0.000000 0.000000 0 0 255 255
-45.000000 43.333336 0.000000 -1.000000 0.000000 0.000000 0 0 255 255
-45.000000 43.333332 -10.000000 -1.000000 0.000000 0.000000 0 0 255 255
-45.000000 40.000000 -10.000000 -1.000000 0.000000 0.000000 0 0 255 255
-45.000000 43.333336 -20.000000 -1.000000 0.000000 0.000000 0 0 255 255
-45.000000 40.000000 -20.000000 -1.000000 0.000000 0.000000 0 0 255 255
-45.000000 36.666664 -20.000000 -1.000000 0.000000 0.000000 0 0 255 255
-10.000000 30.000000 20.000000 -0.707107 -0.707107 0.000000 0 0 255 255
-15.833334 30.000000 20.000000 0.000000 -1.000000 0.000000 0 0 255 255
-21.666666 30.000000 20.000000 0.000000 -1.000000 0.000000 0 0 255 255
-27.500000 30.000000 20.000000 0.000000 -1.000000 0.000000 0 0 255 255
-33.333332 30.000000 20.000000 0.000000 -1.000000 0.000000 0 0 255 255
-10.000000 30.000000 10.000000 -0.707107 -0.707107 0.000000 0 0 255 255
-15.833333 30.000000 10.000000 0.000000 -1.000000 0.000000 0 0 255 255
-10.000000 30.000000 0.000000 -0.707107 -0.707107 0.000000 0 0 255 255
-21.666666 30.000000 10.000000 0.000000 -1.000000 0.000000 0 0 255 255
-15.833333 30.000000 0.000000 0.000000 -1.000000 0.000000 0 0 255 255
-10.000000 30.000000 -10.000000 -0.707107 -0.707107 0.000000 0 0 255 255
-27.500000 30.000000 10.000000 0.000000 -1.000000 0.000000 0 0 255 255
-21.666666 30.000000 0.000000 0.000000 -1.000000 0.000000 0 0 255 255
-15.833333 30.000000 -10.000000 0.000000 -1.000000 0.000000 0 0 255 255
-33.333332 30.000000 10.000000 0.000000 -1.000000 0.000000 0 0 255 255
-27.500000 30.000000 0.000000 0.000000 -1.000000 0.000000 0 0 255 255
-21.666668 30.000000 -10.000000 0.000000 -1.000000 0.000000 0 0 255 255
-15.833334 30.000000 -20.000000 0.000000 -1.000000 0.000000 0 0 255 255
-39.166664 30.000000 10.000000 0.000000 -1.000000 0.000000 0 0 255 255
-39.166668 30.000000 0.000000 0.000000 -1.000000 0.000000 0 0 255 255
-39.166668 30.000000 -10.000000 0.000000 -1.000000 0.000000 0 0 255 255
-39.166668 30.000000 -20.000000 0.000000 -1.000000 0.000000 0 0 255 255
-33.333336 30.000000 0.000000 0.000000 -1.000000 0.000000 0 0 255 255
-33.333336 30.000000 -10.000000 0.000000 -1.000000 0.000000 0 0 255 255
-27.500002 30.000000 -10.000000 0.000000 -1.000000 0.000000 0 0 255 255
-33.333336 30.000000 -20.000000 0.000000 -1.000000 0.000000 0 0 255 255
-27.500002 30.000000 -20.000000 0.000000 -1.000000 0.000000 0 0 255 255
-21.666668 30.000000 -20.000000 0.000000 -1.000000 0.000000 0 0 255 255
-10.000000 -36.666668 20.000000 -1.000000 0.000000 0.000000 0 0 255 255
-10.000000 -23.333334 20.000000 -1.000000 0.000000 0.000000 0 0 255 255
-10.000000 -10.000000 20.000000 -1.000000 0.000000 0.000000 0 0 255 255
-10.000000 3.333333 20.000000 -1.000000 0.000000 0.000000 0 0 255 255
-10.000000 -36.666668 10.000000 -1.000000 0.000000 0.000000 0 0 255 255
-10.000000 -23.333334 10.000000 -1.000000 0.000000 0.000000 0 0 255 255
-10.000000 -36.666668 0.000000 -1.000000 0.000000 0.000000 0 0 255 255
-10.000000 -10.000000 10.000000 -1.000000 0.000000 0.000000 0 0 255 255
-10.000000 -23.333334 0.000000 -1.000000 0.000000 0.000000 0 0 255 255
-10.000000 -36.666668 -10.000000 -1.000000 0.000000 0.000000 0 0 255 255
-10.000000 3.333335 10.000000 -1.000000 0.000000 0.000000 0 0 255 255
-10.000000 -9.999999 0.000000 -1.000000 0.000000 0.000000 0 0 255 255
-10.000000 -23.333332 -10.000000 -1.000000 0.000000 0.000000 0 0 255 255
-10.000000 -36.666664 -20.000000 -1.000000 0.000000 0.000000 0 0 255 255
-10.000000 16.666668 10.000000 -1.000000 0.000000 0.000000 0 0 255 255
-10.000000 16.666666 0.000000 -1.000000 0.000000 0.000000 0 0 255 255
-10.000000 16.666668 -10.000000 -1.000000 0.000000 0.000000 0 0 255 255
-10.000000 16.666668 -20.000000 -1.000000 0.000000 0.000000 0 0 255 255
-10.000000 3.333334 0.000000 -1.000000 0.000000 0.000000 0 0 255 255
-10.000000 3.333334 -10.000000 -1.000000 0.000000 0.000000 0 0 255 255
-10.000000 -9.999999 -10.000000 -1.000000 0.000000 0.000000 0 0 255 255
-10.000000 3.333335 -20.000000 -1.000000 0.000000 0.000000 0 0 255 255
-10.000000 -9.999999 -20.000000 -1.000000 0.000000 0.000000 0 0 255 255
-10.000000 -23.333332 -20.000000 -1.000000 0.000000 0.000000 0 0 255 255
3 0 1 2
3 3 4 5
3 6 7 8
3 9 10 11
3 12 13 14
3 15 16 17
3 18 19 20
3 21 22 23
3 24 25 26
3 27 28 29
3 30 31 32
3 33 34 35
3 36 37 38
3 39 40 41
3 42 43 44
3 45 46 47
3 45 47 48
3 3 49 50
3 3 50 51
3 15 52 53
3 21 54 55
3 15 17 56
3 36 57 37
3 30 58 59
3 30 59 60
3 18 61 19
3 12 62 13
3 18 63 64
3 60 31 30
3 65 66 60
3 67 68 65
3 69 70 67
3 64 71 69
3 60 66 31
3 66 72 31
3 65 68 66
3 68 73 66
3 66 73 72
3 73 74 72
3 67 70 68
3 70 75 68
3 68 75 73
3 75 76 73
3 73 76 74
3 76 77 74
3 69 71 70
3 71 78 70
3 70 78 75
3 78 79 75
3 75 79 76
3 79 80 76
3 76 80 77
3 80 81 77
3 64 63 71
3 63 82 71
3 71 82 78
3 82 83 78
3 78 83 79
3 83 84 79
3 79 84 80
3 84 25 80
3 80 25 81
3 25 24 81
3 85 7 6
3 86 87 85
3 88 89 86
3 90 91 88
3 13 92 90
3 85 87 7
3 87 93 7
3 86 89 87
3 89 94 87
3 87 94 93
3 94 95 93
3 88 91 89
3 91 96 89
3 89 96 94
3 96 97 94
3 94 97 95
3 97 98 95
3 90 92 91
3 92 99 91
3 91 99 96
3 99 100 96
3 96 100 97
3 100 101 97
3 97 101 98
3 101 102 98
3 13 62 92
3 62 103 92
3 92 103 99
3 103 104 99
3 99 104 100
3 104 105 100
3 100 105 101
3 105 106 101
3 101 106 102
3 106 0 102
3 107 62 12
3 108 109 107
3 110 111 108
3 112 113 110
3 19 114 112
3 107 109 62
3 109 103 62
3 108 111 109
3 111 115 109
3 109 115 103
3 115 104 103
3 110 113 111
3 113 116 111
3 111 116 115
3 116 117 115
3 115 117 104
3 117 105 104
3 112 114 113
3 114 118 113
3 113 118 116
3 118 119 116
3 116 119 117
3 119 120 117
3 117 120 105
3 120 106 105
3 19 61 114
3 61 121 114
3 114 121 118
3 121 122 118
3 118 122 119
3 122 123 119
3 119 123 120
3 123 124 120
3 120 124 106
3 124 0 106
3 64 61 18
3 69 125 64
3 67 126 69
3 65 127 67
3 60 128 65
3 64 125 61
3 125 121 61
3 69 126 125
3 126 129 125
3 125 129 121
3 129 122 121
3 67 127 126
3 127 130 126
3 126 130 129
3 130 131 129
3 129 131 122
3 131 123 122
3 65 128 127
3 128 132 127
3 127 132 130
3 132 133 130
3 130 133 131
3 133 134 131
3 131 134 123
3 134 124 123
3 60 59 128
3 59 135 128
3 128 135 132
3 135 136 132
3 132 136 133
3 136 137 133
3 133 137 134
3 137 138 134
3 134 138 124
3 138 0 124
3 138 1 0
3 137 139 138
3 136 140 137
3 135 141 136
3 59 142 135
3 138 139 1
3 139 143 1
3 137 140 139
3 140 144 139
3 139 144 143
3 144 145 143
3 136 141 140
3 141 146 140
3 140 146 144
3 146 147 144
3 144 147 145
3 147 148 145
3 135 142 141
3 142 149 141
3 141 149 146
3 149 150 146
3 146 150 147
3 150 151 147
3 147 151 148
3 151 152 148
3 59 58 142
3 58 153 142
3 142 153 149
3 153 154 149
3 149 154 150
3 154 155 150
3 150 155 151
3 155 156 151
3 151 156 152
3 156 42 152
3 157 58 30
3 158 159 157
3 160 161 158
3 162 163 160
3 37 164 162
3 157 159 58
3 159 153 58
3 158 161 159
3 161 165 159
3 159 165 153
3 165 154 153
3 160 163 161
3 163 166 161
3 161 166 165
3 166 167 165
3 165 167 154
3 167 155 154
3 162 164 163
3 164 168 163
3 163 168 166
3 168 169 166
3 166 169 167
3 169 170 167
3 167 170 155
3 170 156 155
3 37 57 164
3 57 171 164
3 164 171 168
3 171 172 168
3 168 172 169
3 172 173 169
3 169 173 170
3 173 43 170
3 170 43 156
3 43 42 156
3 51 174 3
3 175 176 51
3 177 178 175
3 179 180 177
3 56 181 179
3 51 176 174
3 176 182 174
3 175 178 176
3 178 183 176
3 176 183 182
3 183 184 182
3 177 180 178
3 180 185 178
3 178 185 183
3 185 186 183
3 183 186 184
3 186 187 184
3 179 181 180
3 181 188 180
3 180 188 185
3 188 189 185
3 185 189 186
3 189 190 186
3 186 190 187
3 190 11 187
3 56 17 181
3 17 191 181
3 181 191 188
3 191 192 188
3 188 192 189
3 192 193 189
3 189 193 190
3 193 194 190
3 190 194 11
3 194 9 11
3 29 195 27
3 196 197 29
3 198 199 196
3 200 201 198
3 55 202 200
3 29 197 195
3 197 203 195
3 196 199 197
3 199 204 197
3 197 204 203
3 204 205 203
3 198 201 199
3 201 206 199
3 199 206 204
3 206 207 204
3 204 207 205
3 207 208 205
3 200 202 201
3 202 209 201
3 201 209 206
3 209 210 206
3 206 210 207
3 210 211 207
3 207 211 208
3 211 35 208
3 55 54 202
3 54 212 202
3 202 212 209
3 212 213 209
3 209 213 210
3 213 214 210
3 210 214 211
3 214 215 211
3 211 215 35
3 215 33 35
3 23 54 21
3 216 217 23
3 218 219 216
3 220 221 218
3 53 222 220
3 23 217 54
3 217 212 54
3 216 219 217
3 219 223 217
3 217 223 212
3 223 213 212
3 218 221 219
3 221 224 219
3 219 224 223
3 224 225 223
3 223 225 213
3 225 214 213
3 220 222 221
3 222 226 221
3 221 226 224
3 226 227 224
3 224 227 225
3 227 228 225
3 225 228 214
3 228 215 214
3 53 52 222
3 52 229 222
3 222 229 226
3 229 230 226
3 226 230 227
3 230 231 227
3 227 231 228
3 231 232 228
3 228 232 215
3 232 33 215
3 56 52 15
3 179 233 56
3 177 234 179
3 175 235 177
3 51 236 175
3 56 233 52
3 233 229 52
3 179 234 233
3 234 237 233
3 233 237 229
3 237 230 229
3 177 235 234
3 235 238 234
3 234 238 237
3 238 239 237
3 237 239 230
3 239 231 230
3 175 236 235
3 236 240 235
3 235 240 238
3 240 241 238
3 238 241 239
3 241 242 239
3 239 242 231
3 242 232 231
3 51 50 236
3 50 243 236
3 236 243 240
3 243 244 240
3 240 244 241
3 244 245 241
3 241 245 242
3 245 246 242
3 242 246 232
3 246 33 232
3 246 247 33
3 245 248 246
3 244 249 245
3 243 250 244
3 50 251 243
3 246 248 247
3 248 252 247
3 245 249 248
3 249 253 248
3 248 253 252
3 253 254 252
3 244 250 249
3 250 255 249
3 249 255 253
3 255 256 253
3 253 256 254
3 256 257 254
3 243 251 250
3 251 258 250
3 250 258 255
3 258 259 255
3 255 259 256
3 259 260 256
3 256 260 257
3 260 41 257
3 50 49 251
3 49 261 251
3 251 261 258
3 261 262 258
3 258 262 259
3 262 263 259
3 259 263 260
3 263 264 260
3 260 264 41
3 264 39 41
3 5 49 3
3 265 266 5
3 267 268 265
3 269 270 267
3 48 271 269
3 5 266 49
3 266 261 49
3 265 268 266
3 268 272 266
3 266 272 261
3 272 262 261
3 267 270 268
3 270 273 268
3 268 273 272
3 273 274 272
3 272 274 262
3 274 263 262
3 269 271 270
3 271 275 270
3 270 275 273
3 275 276 273
3 273 276 274
3 276 277 274
3 274 277 263
3 277 264 263
3 48 47 271
3 47 278 271
3 271 278 275
3 278 279 275
3 275 279 276
3 279 280 276
3 276 280 277
3 280 281 277
3 277 281 264
3 281 39 264
3 281 282 39
3 280 283 281
3 279 284 280
3 278 285 279
3 47 286 278
3 281 283 282
3 283 287 282
3 280 284 283
3 284 288 283
3 283 288 287
3 288 289 287
3 279 285 284
3 285 290 284
3 284 290 288
3 290 291 288
3 288 291 289
3 291 292 289
3 278 286 285
3 286 293 285
3 285 293 290
3 293 294 290
3 290 294 291
3 294 295 291
3 291 295 292
3 295 38 292
3 47 46 286
3 46 296 286
3 286 296 293
3 296 297 293
3 293 297 294
3 297 298 294
3 294 298 295
3 298 299 295
3 295 299 38
3 299 36 38
3 300 46 45
3 301 302 300
3 303 304 301
3 305 306 303
3 44 307 305
3 300 302 46
3 302 296 46
3 301 304 302
3 304 308 302
3 302 308 296
3 308 297 296
3 303 306 304
3 306 309 304
3 304 309 308
3 309 310 308
3 308 310 297
3 310 298 297
3 305 307 306
3 307 311 306
3 306 311 309
3 311 312 309
3 309 312 310
3 312 313 310
3 310 313 298
3 313 299 298
3 44 43 307
3 43 173 307
3 307 173 311
3 173 172 311
3 311 172 312
3 172 171 312
3 312 171 313
3 171 57 313
3 313 57 299
3 57 36 299
3 247 314 33
3 252 315 247
3 254 316 252
3 257 317 254
3 41 318 257
3 247 315 314
3 315 319 314
3 252 316 315
3 316 320 315
3 315 320 319
3 320 321 319
3 254 317 316
3 317 322 316
3 316 322 320
3 322 323 320
3 320 323 321
3 323 324 321
3 257 318 317
3 318 325 317
3 317 325 322
3 325 326 322
3 322 326 323
3 326 327 323
3 323 327 324
3 327 32 324
3 41 40 318
3 40 328 318
3 318 328 325
3 328 329 325
3 325 329 326
3 329 330 326
3 326 330 327
3 330 331 327
3 327 331 32
3 331 30 32
3 282 40 39
3 287 332 282
3 289 333 287
3 292 334 289
3 38 335 292
3 282 332 40
3 332 328 40
3 287 333 332
3 333 336 332
3 332 336 328
3 336 329 328
3 289 334 333
3 334 337 333
3 333 337 336
3 337 338 336
3 336 338 329
3 338 330 329
3 292 335 334
3 335 339 334
3 334 339 337
3 339 340 337
3 337 340 338
3 340 341 338
3 338 341 330
3 341 331 330
3 38 37 335
3 37 162 335
3 335 162 339
3 162 160 339
3 339 160 340
3 160 158 340
3 340 158 341
3 158 157 341
3 341 157 331
3 157 30 331
3 195 342 27
3 203 343 195
3 205 344 203
3 208 345 205
3 35 346 208
3 195 343 342
3 343 347 342
3 203 344 343
3 344 348 343
3 343 348 347
3 348 349 347
3 205 345 344
3 345 350 344
3 344 350 348
3 350 351 348
3 348 351 349
3 351 352 349
3 208 346 345
3 346 353 345
3 345 353 350
3 353 354 350
3 350 354 351
3 354 355 351
3 351 355 352
3 355 26 352
3 35 34 346
3 34 356 346
3 346 356 353
3 356 357 353
3 353 357 354
3 357 358 354
3 354 358 355
3 358 359 355
3 355 359 26
3 359 24 26
3 314 34 33
3 319 360 314
3 321 361 319
3 324 362 321
3 32 363 324
3 314 360 34
3 360 356 34
3 319 361 360
3 361 364 360
3 360 364 356
3 364 357 356
3 321 362 361
3 362 365 361
3 361 365 364
3 365 366 364
3 364 366 357
3 366 358 357
3 324 363 362
3 363 367 362
3 362 367 365
3 367 368 365
3 365 368 366
3 368 369 366
3 366 369 358
3 369 359 358
3 32 31 363
3 31 72 363
3 363 72 367
3 72 74 367
3 367 74 368
3 74 77 368
3 368 77 369
3 77 81 369
3 369 81 359
3 81 24 359
3 55 370 21
3 200 371 55
3 198 372 200
3 196 373 198
3 29 374 196
3 55 371 370
3 371 375 370
3 200 372 371
3 372 376 371
3 371 376 375
3 376 377 375
3 198 373 372
3 373 378 372
3 372 378 376
3 378 379 376
3 376 379 377
3 379 380 377
3 196 374 373
3 374 381 373
3 373 381 378
3 381 382 378
3 378 382 379
3 382 383 379
3 379 383 380
3 383 20 380
3 29 28 374
3 28 384 374
3 374 384 381
3 384 385 381
3 381 385 382
3 385 386 382
3 382 386 383
3 386 387 383
3 383 387 20
3 387 18 20
3 342 28 27
3 347 388 342
3 349 389 347
3 352 390 349
3 26 391 352
3 342 388 28
3 388 384 28
3 347 389 388
3 389 392 388
3 388 392 384
3 392 385 384
3 349 390 389
3 390 393 389
3 389 393 392
3 393 394 392
3 392 394 385
3 394 386 385
3 352 391 390
3 391 395 390
3 390 395 393
3 395 396 393
3 393 396 394
3 396 397 394
3 394 397 386
3 397 387 386
3 26 25 391
3 25 84 391
3 391 84 395
3 84 83 395
3 395 83 396
3 83 82 396
3 396 82 397
3 82 63 397
3 397 63 387
3 63 18 387
3 53 398 15
3 220 399 53
3 218 400 220
3 216 401 218
3 23 402 216
3 53 399 398
3 399 403 398
3 220 400 399
3 400 404 399
3 399 404 403
3 404 405 403
3 218 401 400
3 401 406 400
3 400 406 404
3 406 407 404
3 404 407 405
3 407 408 405
3 216 402 401
3 402 409 401
3 401 409 406
3 409 410 406
3 406 410 407
3 410 411 407
3 407 411 408
3 411 14 408
3 23 22 402
3 22 412 402
3 402 412 409
3 412 413 409
3 409 413 410
3 413 414 410
3 410 414 411
3 414 415 411
3 411 415 14
3 415 12 14
3 370 22 21
3 375 416 370
3 377 417 375
3 380 418 377
3 20 419 380
3 370 416 22
3 416 412 22
3 375 417 416
3 417 420 416
3 416 420 412
3 420 413 412
3 377 418 417
3 418 421 417
3 417 421 420
3 421 422 420
3 420 422 413
3 422 414 413
3 380 419 418
3 419 423 418
3 418 423 421
3 423 424 421
3 421 424 422
3 424 425 422
3 422 425 414
3 425 415 414
3 20 19 419
3 19 112 419
3 419 112 423
3 112 110 423
3 423 110 424
3 110 108 424
3 424 108 425
3 108 107 425
3 425 107 415
3 107 12 415
3 194 426 9
3 193 427 194
3 192 428 193
3 191 429 192
3 17 430 191
3 194 427 426
3 427 431 426
3 193 428 427
3 428 432 427
3 427 432 431
3 432 433 431
3 192 429 428
3 429 434 428
3 428 434 432
3 434 435 432
3 432 435 433
3 435 436 433
3 191 430 429
3 430 437 429
3 429 437 434
3 437 438 434
3 434 438 435
3 438 439 435
3 435 439 436
3 439 8 436
3 17 16 430
3 16 440 430
3 430 440 437
3 440 441 437
3 437 441 438
3 441 442 438
3 438 442 439
3 442 443 439
3 439 443 8
3 443 6 8
3 398 16 15
3 403 444 398
3 405 445 403
3 408 446 405
3 14 447 408
3 398 444 16
3 444 440 16
3 403 445 444
3 445 448 444
3 444 448 440
3 448 441 440
3 405 446 445
3 446 449 445
3 445 449 448
3 449 450 448
3 448 450 441
3 450 442 441
3 408 447 446
3 447 451 446
3 446 451 449
3 451 452 449
3 449 452 450
3 452 453 450
3 450 453 442
3 453 443 442
3 14 13 447
3 13 90 447
3 447 90 451
3 90 88 451
3 451 88 452
3 88 86 452
3 452 86 453
3 86 85 453
3 453 85 443
3 85 6 443
3 174 454 3
3 182 455 174
3 184 456 182
3 187 457 184
3 11 458 187
3 174 455 454
3 455 459 454
3 182 456 455
3 456 460 455
3 455 460 459
3 460 461 459
3 184 457 456
3 457 462 456
3 456 462 460
3 462 463 460
3 460 463 461
3 463 464 461
3 187 458 457
3 458 465 457
3 457 465 462
3 465 466 462
3 462 466 463
3 466 467 463
3 463 467 464
3 467 2 464
3 11 10 458
3 10 468 458
3 458 468 465
3 468 469 465
3 465 469 466
3 469 470 466
3 466 470 467
3 470 471 467
3 467 471 2
3 471 0 2
3 426 10 9
3 431 472 426
3 433 473 431
3 436 474 433
3 8 475 436
3 426 472 10
3 472 468 10
3 431 473 472
3 473 476 472
3 472 476 468
3 476 469 468
3 433 474 473
3 474 477 473
3 473 477 476
3 477 478 476
3 476 478 469
3 478 470 469
3 436 475 474
3 475 479 474
3 474 479 477
3 479 480 477
3 477 480 478
3 480 481 478
3 478 481 470
3 481 471 470
3 8 7 475
3 7 93 475
3 475 93 479
3 93 95 479
3 479 95 480
3 95 98 480
3 480 98 481
3 98 102 481
3 481 102 471
3 102 0 471
3 48 300 45
3 269 482 48
3 267 483 269
3 265 484 267
3 5 485 265
3 48 482 300
3 482 301 300
3 269 483 482
3 483 486 482
3 482 486 301
3 486 303 301
3 267 484 483
3 484 487 483
3 483 487 486
3 487 488 486
3 486 488 303
3 488 305 303
3 265 485 484
3 485 489 484
3 484 489 487
3 489 490 487
3 487 490 488
3 490 491 488
3 488 491 305
3 491 44 305
3 5 4 485
3 4 492 485
3 485 492 489
3 492 493 489
3 489 493 490
3 493 494 490
3 490 494 491
3 494 495 491
3 491 495 44
3 495 42 44
3 454 4 3
3 459 496 454
3 461 497 459
3 464 498 461
3 2 499 464
3 454 496 4
3 496 492 4
3 459 497 496
3 497 500 496
3 496 500 492
3 500 493 492
3 461 498 497
3 498 501 497
3 497 501 500
3 501 502 500
3 500 502 493
3 502 494 493
3 464 499 498
3 499 503 498
3 498 503 501
3 503 504 501
3 501 504 502
3 504 505 502
3 502 505 494
3 505 495 494
3 2 1 499
3 1 143 499
3 499 143 503
3 143 145 503
3 503 145 504
3 145 148 504
3 504 148 505
3 148 152 505
3 505 152 495
3 152 42 495
