ply
format ascii 1.0
comment Created by Blender 3.3.1 - www.blender.org
element vertex 98
property float x
property float y
property float z
property float nx
property float ny
property float nz
property uchar red
property uchar green
property uchar blue
property uchar alpha
element face 192
property list uchar uint vertex_indices
end_header
36.465851 100.000000 -37.500000 0.577350 0.577350 -0.577350 255 128 0 255
18.232925 100.000000 -37.500000 0.000000 0.707107 -0.707107 255 128 0 255
36.465851 100.000000 -18.750000 0.707107 0.707107 0.000000 255 128 0 255
36.465851 100.000000 37.500000 0.577350 0.577350 0.577350 255 128 0 255
18.232925 100.000000 18.750000 0.000000 1.000000 0.000000 255 128 0 255
18.232925 100.000000 37.500000 0.000000 0.707107 0.707107 255 128 0 255
36.465851 -100.000000 -37.500000 0.577350 -0.577350 -0.577350 255 128 0 255
36.465851 -50.000000 -37.500000 0.707107 0.000000 -0.707107 255 128 0 255
36.465851 -100.000000 -18.750000 0.707107 -0.707107 0.000000 255 128 0 255
36.465851 -100.000000 37.500000 0.577350 -0.577350 0.577350 255 128 0 255
36.465851 -50.000000 18.750000 1.000000 0.000000 0.000000 255 128 0 255
36.465851 -50.000000 37.500000 0.707107 0.000000 0.707107 255 128 0 255
-36.465851 -100.000000 -37.500000 -0.577350 -0.577350 -0.577350 255 128 0 255
-18.232925 -100.000000 -37.500000 0.000000 -0.707107 -0.707107 255 128 0 255
-36.465851 -100.000000 -18.750000 -0.707107 -0.707107 0.000000 255 128 0 255
-36.465851 -100.000000 37.500000 -0.577350 -0.577350 0.577350 255 128 0 255
-18.232925 -100.000000 18.750000 0.000000 -1.000000 0.000000 255 128 0 255
-18.232925 -100.000000 37.500000 0.000000 -0.707107 0.707107 255 128 0 255
-36.465851 100.000000 -37.500000 -0.577350 0.577350 -0.577350 255 128 0 255
-36.465851 50.000000 -37.500000 -0.707107 0.000000 -0.707107 255 128 0 255
-36.465851 100.000000 -18.750000 -0.707107 0.707107 0.000000 255 128 0 255
-36.465851 100.000000 37.500000 -0.577350 0.577350 0.577350 255 128 0 255
-36.465851 50.000000 18.750000 -1.000000 0.000000 0.000000 255 128 0 255
-36.465851 50.000000 37.500000 -0.707107 0.000000 0.707107 255 128 0 255
-36.465851 -50.000000 37.500000 -0.707107 0.000000 0.707107 255 128 0 255
-18.232925 50.000000 37.500000 0.000000 0.000000 1.000000 255 128 0 255
-18.232925 100.000000 37.500000 0.000000 0.707107 0.707107 255 128 0 255
-18.232925 100.000000 -37.500000 0.000000 0.707107 -0.707107 255 128 0 255
-18.232925 -50.000000 -37.500000 0.000000 0.000000 -1.000000 255 128 0 255
18.232925 -100.000000 -37.500000 0.000000 -0.707107 -0.707107 255 128 0 255
0.000000 -100.000000 -37.500000 0.000000 -0.707107 -0.707107 255 128 0 255
18.232925 -50.000000 -37.500000 0.000000 0.000000 -1.000000 255 128 0 255
0.000000 -50.000000 -37.500000 0.000000 0.000000 -1.000000 255 128 0 255
36.465851 0.000000 -37.500000 0.707107 0.000000 -0.707107 255 128 0 255
18.232925 0.000000 -37.500000 0.000000 0.000000 -1.000000 255 128 0 255
36.465851 50.000000 -37.500000 0.707107 0.000000 -0.707107 255 128 0 255
0.000000 0.000000 -37.500000 0.000000 0.000000 -1.000000 255 128 0 255
18.232925 50.000000 -37.500000 0.000000 0.000000 -1.000000 255 128 0 255
-36.465851 -50.000000 -37.500000 -0.707107 0.000000 -0.707107 255 128 0 255
-36.465851 0.000000 -37.500000 -0.707107 0.000000 -0.707107 255 128 0 255
-18.232925 0.000000 -37.500000 0.000000 0.000000 -1.000000 255 128 0 255
-18.232925 50.000000 -37.500000 0.000000 0.000000 -1.000000 255 128 0 255
0.000000 50.000000 -37.500000 0.000000 0.000000 -1.000000 255 128 0 255
0.000000 100.000000 -37.500000 0.000000 0.707107 -0.707107 255 128 0 255
36.465851 50.000000 37.500000 0.707107 0.000000 0.707107 255 128 0 255
0.000000 100.000000 37.500000 0.000000 0.707107 0.707107 255 128 0 255
18.232925 50.000000 37.500000 0.000000 0.000000 1.000000 255 128 0 255
0.000000 50.000000 37.500000 0.000000 0.000000 1.000000 255 128 0 255
36.465851 0.000000 37.500000 0.707107 0.000000 0.707107 255 128 0 255
18.232925 0.000000 37.500000 0.000000 0.000000 1.000000 255 128 0 255
0.000000 0.000000 37.500000 0.000000 0.000000 1.000000 255 128 0 255
18.232925 -50.000000 37.500000 0.000000 0.000000 1.000000 255 128 0 255
-36.465851 0.000000 37.500000 -0.707107 0.000000 0.707107 255 128 0 255
-18.232925 0.000000 37.500000 0.000000 0.000000 1.000000 255 128 0 255
-18.232925 -50.000000 37.500000 0.000000 0.000000 1.000000 255 128 0 255
0.000000 -50.000000 37.500000 0.000000 0.000000 1.000000 255 128 0 255
0.000000 -100.000000 37.500000 0.000000 -0.707107 0.707107 255 128 0 255
18.232925 -100.000000 37.500000 0.000000 -0.707107 0.707107 255 128 0 255
-36.465851 -100.000000 18.750000 -0.707107 -0.707107 0.000000 255 128 0 255
-36.465851 -50.000000 18.750000 -1.000000 0.000000 0.000000 255 128 0 255
-36.465851 0.000000 18.750000 -1.000000 0.000000 0.000000 255 128 0 255
-36.465851 -100.000000 0.000000 -0.707107 -0.707107 0.000000 255 128 0 255
-36.465851 -50.000000 0.000000 -1.000000 0.000000 0.000000 255 128 0 255
-36.465851 0.000000 0.000000 -1.000000 0.000000 0.000000 255 128 0 255
-36.465851 -50.000000 -18.750000 -1.000000 0.000000 0.000000 255 128 0 255
-36.465851 100.000000 18.750000 -0.707107 0.707107 0.000000 255 128 0 255
-36.465851 100.000000 0.000000 -0.707107 0.707107 0.000000 255 128 0 255
-36.465851 50.000000 0.000000 -1.000000 0.000000 0.000000 255 128 0 255
-36.465851 50.000000 -18.750000 -1.000000 0.000000 0.000000 255 128 0 255
-36.465851 0.000000 -18.750000 -1.000000 0.000000 0.000000 255 128 0 255
36.465851 -100.000000 18.750000 0.707107 -0.707107 0.000000 255 128 0 255
18.232925 -100.000000 18.750000 0.000000 -1.000000 0.000000 255 128 0 255
0.000000 -100.000000 18.750000 0.000000 -1.000000 0.000000 255 128 0 255
36.465851 -100.000000 0.000000 0.707107 -0.707107 0.000000 255 128 0 255
18.232925 -100.000000 0.000000 0.000000 -1.000000 0.000000 255 128 0 255
0.000000 -100.000000 0.000000 0.000000 -1.000000 0.000000 255 128 0 255
18.232925 -100.000000 -18.750000 0.000000 -1.000000 0.000000 255 128 0 255
-18.232925 -100.000000 0.000000 0.000000 -1.000000 0.000000 255 128 0 255
-18.232925 -100.000000 -18.750000 0.000000 -1.000000 0.000000 255 128 0 255
0.000000 -100.000000 -18.750000 0.000000 -1.000000 0.000000 255 128 0 255
36.465851 100.000000 18.750000 0.707107 0.707107 0.000000 255 128 0 255
36.465851 50.000000 18.750000 1.000000 0.000000 0.000000 255 128 0 255
36.465851 0.000000 18.750000 1.000000 0.000000 0.000000 255 128 0 255
36.465851 100.000000 0.000000 0.707107 0.707107 0.000000 255 128 0 255
36.465851 50.000000 0.000000 1.000000 0.000000 0.000000 255 128 0 255
36.465851 0.000000 0.000000 1.000000 0.000000 0.000000 255 128 0 255
36.465851 50.000000 -18.750000 1.000000 0.000000 0.000000 255 128 0 255
36.465851 -50.000000 0.000000 1.000000 0.000000 0.000000 255 128 0 255
36.465851 -50.000000 -18.750000 1.000000 0.000000 0.000000 255 128 0 255
36.465851 0.000000 -18.750000 1.000000 0.000000 0.000000 255 128 0 255
-18.232925 100.000000 18.750000 0.000000 1.000000 0.000000 255 128 0 255
0.000000 100.000000 18.750000 0.000000 1.000000 0.000000 255 128 0 255
-18.232925 100.000000 0.000000 0.000000 1.000000 0.000000 255 128 0 255
0.000000 100.000000 0.000000 0.000000 1.000000 0.000000 255 128 0 255
-18.232925 100.000000 -18.750000 0.000000 1.000000 0.000000 255 128 0 255
18.232925 100.000000 0.000000 0.000000 1.000000 0.000000 255 128 0 255
18.232925 100.000000 -18.750000 0.000000 1.000000 0.000000 255 128 0 255
0.000000 100.000000 -18.750000 0.000000 1.000000 0.000000 255 128 0 255
3 0 1 2
3 3 4 5
3 6 7 8
3 9 10 11
3 12 13 14
3 15 16 17
3 18 19 20
3 21 22 23
3 15 17 24
3 21 25 26
3 18 27 19
3 12 28 13
3 29 7 6
3 30 31 29
3 13 32 30
3 29 31 7
3 31 33 7
3 30 32 31
3 32 34 31
3 31 34 33
3 34 35 33
3 13 28 32
3 28 36 32
3 32 36 34
3 36 37 34
3 34 37 35
3 37 0 35
3 38 28 12
3 39 40 38
3 19 41 39
3 38 40 28
3 40 36 28
3 39 41 40
3 41 42 40
3 40 42 36
3 42 37 36
3 19 27 41
3 27 43 41
3 41 43 42
3 43 1 42
3 42 1 37
3 1 0 37
3 5 44 3
3 45 46 5
3 26 47 45
3 5 46 44
3 46 48 44
3 45 47 46
3 47 49 46
3 46 49 48
3 49 11 48
3 26 25 47
3 25 50 47
3 47 50 49
3 50 51 49
3 49 51 11
3 51 9 11
3 23 25 21
3 52 53 23
3 24 54 52
3 23 53 25
3 53 50 25
3 52 54 53
3 54 55 53
3 53 55 50
3 55 51 50
3 24 17 54
3 17 56 54
3 54 56 55
3 56 57 55
3 55 57 51
3 57 9 51
3 24 58 15
3 52 59 24
3 23 60 52
3 24 59 58
3 59 61 58
3 52 60 59
3 60 62 59
3 59 62 61
3 62 14 61
3 23 22 60
3 22 63 60
3 60 63 62
3 63 64 62
3 62 64 14
3 64 12 14
3 65 22 21
3 66 67 65
3 20 68 66
3 65 67 22
3 67 63 22
3 66 68 67
3 68 69 67
3 67 69 63
3 69 64 63
3 20 19 68
3 19 39 68
3 68 39 69
3 39 38 69
3 69 38 64
3 38 12 64
3 57 70 9
3 56 71 57
3 17 72 56
3 57 71 70
3 71 73 70
3 56 72 71
3 72 74 71
3 71 74 73
3 74 8 73
3 17 16 72
3 16 75 72
3 72 75 74
3 75 76 74
3 74 76 8
3 76 6 8
3 58 16 15
3 61 77 58
3 14 78 61
3 58 77 16
3 77 75 16
3 61 78 77
3 78 79 77
3 77 79 75
3 79 76 75
3 14 13 78
3 13 30 78
3 78 30 79
3 30 29 79
3 79 29 76
3 29 6 76
3 44 80 3
3 48 81 44
3 11 82 48
3 44 81 80
3 81 83 80
3 48 82 81
3 82 84 81
3 81 84 83
3 84 2 83
3 11 10 82
3 10 85 82
3 82 85 84
3 85 86 84
3 84 86 2
3 86 0 2
3 70 10 9
3 73 87 70
3 8 88 73
3 70 87 10
3 87 85 10
3 73 88 87
3 88 89 87
3 87 89 85
3 89 86 85
3 8 7 88
3 7 33 88
3 88 33 89
3 33 35 89
3 89 35 86
3 35 0 86
3 26 65 21
3 45 90 26
3 5 91 45
3 26 90 65
3 90 66 65
3 45 91 90
3 91 92 90
3 90 92 66
3 92 20 66
3 5 4 91
3 4 93 91
3 91 93 92
3 93 94 92
3 92 94 20
3 94 18 20
3 80 4 3
3 83 95 80
3 2 96 83
3 80 95 4
3 95 93 4
3 83 96 95
3 96 97 95
3 95 97 93
3 97 94 93
3 2 1 96
3 1 43 96
3 96 43 97
3 43 27 97
3 97 27 94
3 27 18 94
